:FULLY-SPECIFIED
:FORCE-ALL-JOINTS-BE-3DOF
:DEGREES
102
root 7.41854 16.6864 -26.7261 3.86716 10.6019 -3.64476
lfemur -26.5687 -4.00584 -11.3121
ltibia 38.91 0 0
lfoot -18.7563 -4.06529 0
ltoes 18.5113 0 0
rfemur -33.5621 -8.34168 6.75451
rtibia 76.3593 0 0
rfoot 19.1484 20.5906 0
rtoes 0.22433 0 0
lowerback 0.944458 1.97391 0.597864
upperback -1.19915 2.67835 1.84468
thorax -1.81969 1.34541 1.48749
lowerneck -10.4446 -4.86084 2.37507
upperneck -0.777194 -6.74822 0.939568
head 1.46358 -3.33737 -0.396387
lclavicle 2.11905e-014 -2.71907e-014 0
lhumerus -46.9735 -8.53305 93.6097
lradius 48.6587 0 0
lwrist 15.9076 0 0
lhand 7.27008 8.88943 0
lfingers 7.12502 0 0
lthumb 32.5301 35.9616 0
rclavicle 2.11905e-014 -2.71907e-014 0
rhumerus -42.8003 0.225509 -71.9879
rradius 50.5028 0 0
rwrist -1.4845 0 0
rhand -18.752 -13.6949 0
rfingers 7.12502 0 0
rthumb 7.54447 -43.5381 0
103
root 7.44943 16.683 -26.6981 3.72635 10.8077 -3.68498
lfemur -26.6291 -4.19081 -11.1339
ltibia 38.9419 0 0
lfoot -18.4774 -4.10428 0
ltoes 18.1554 0 0
rfemur -33.8811 -8.54883 6.50272
rtibia 77.2746 0 0
rfoot 20.088 21.3439 0
rtoes 0.193009 0 0
lowerback 1.07787 1.97631 0.590622
upperback -1.19022 2.68334 1.89526
thorax -1.88776 1.34802 1.53864
lowerneck -10.4598 -4.92423 2.36605
upperneck -0.714847 -6.83288 0.920058
head 1.48527 -3.37885 -0.405206
lclavicle 2.21769e-014 -2.76311e-014 0
lhumerus -47.0891 -8.41949 93.5721
lradius 48.7876 0 0
lwrist 16.0762 0 0
lhand 7.63846 9.00616 0
lfingers 7.12502 0 0
lthumb 32.8832 36.0309 0
rclavicle 2.21769e-014 -2.76311e-014 0
rhumerus -42.8547 0.298152 -71.5966
rradius 50.7095 0 0
rwrist -1.6945 0 0
rhand -18.6097 -13.5435 0
rfingers 7.12502 0 0
rthumb 7.68192 -43.384 0
104
root 7.44151 16.6761 -26.6851 3.62511 11.0961 -3.62896
lfemur -26.4595 -3.58082 -11.2102
ltibia 38.8742 0 0
lfoot -18.2958 -3.74695 0
ltoes 18.4408 0 0
rfemur -34.4513 -8.91445 6.68849
rtibia 77.9243 0 0
rfoot 20.1458 21.0775 0
rtoes -0.0169461 0 0
lowerback 1.22764 1.80493 0.483364
upperback -1.12561 2.44626 1.85296
thorax -1.88821 1.22997 1.57357
lowerneck -10.4747 -4.90179 2.28846
upperneck -0.675276 -6.79787 0.996698
head 1.50636 -3.3588 -0.366748
lclavicle 2.25333e-014 -2.70893e-014 0
lhumerus -46.9384 -8.98719 93.7187
lradius 48.781 0 0
lwrist 15.9859 0 0
lhand 8.09165 9.1978 0
lfingers 7.12502 0 0
lthumb 33.3047 36.0569 0
rclavicle 2.25333e-014 -2.70893e-014 0
rhumerus -43.1115 -0.061251 -71.6362
rradius 51.6141 0 0
rwrist -1.73023 0 0
rhand -18.0284 -13.3761 0
rfingers 7.12502 0 0
rthumb 8.23927 -50.2058 0
105
root 7.4336 16.6692 -26.6721 3.52387 11.3845 -3.57294
lfemur -26.2899 -2.97083 -11.2865
ltibia 38.8065 0 0
lfoot -18.1142 -3.38961 0
ltoes 18.7263 0 0
rfemur -35.0215 -9.28008 6.87426
rtibia 78.5741 0 0
rfoot 20.2035 20.8111 0
rtoes -0.226901 0 0
lowerback 1.37742 1.63355 0.376106
upperback -1.06099 2.20918 1.81066
thorax -1.88865 1.11192 1.6085
lowerneck -10.4896 -4.87936 2.21088
upperneck -0.635705 -6.76286 1.07334
head 1.52745 -3.33874 -0.32829
lclavicle 2.28897e-014 -2.65475e-014 0
lhumerus -46.7877 -9.55489 93.8654
lradius 48.7744 0 0
lwrist 15.8957 0 0
lhand 8.54485 9.38945 0
lfingers 7.12502 0 0
lthumb 33.7263 36.0829 0
rclavicle 2.28897e-014 -2.65475e-014 0
rhumerus -43.3683 -0.420654 -71.6759
rradius 52.5188 0 0
rwrist -1.76595 0 0
rhand -17.4472 -13.2088 0
rfingers 7.12502 0 0
rthumb 8.79662 -57.0277 0
106
root 7.42568 16.6622 -26.6592 3.42263 11.6729 -3.51692
lfemur -26.1203 -2.36084 -11.3629
ltibia 38.7388 0 0
lfoot -17.9326 -3.03228 0
ltoes 19.0117 0 0
rfemur -35.5917 -9.6457 7.06002
rtibia 79.2238 0 0
rfoot 20.2613 20.5447 0
rtoes -0.436856 0 0
lowerback 1.52719 1.46217 0.268848
upperback -0.996376 1.9721 1.76836
thorax -1.8891 0.993867 1.64342
lowerneck -10.5045 -4.85692 2.13329
upperneck -0.596134 -6.72786 1.14998
head 1.54854 -3.31869 -0.289832
lclavicle 2.32461e-014 -2.60057e-014 0
lhumerus -46.637 -10.1226 94.012
lradius 48.7678 0 0
lwrist 15.8054 0 0
lhand 8.99804 9.58109 0
lfingers 7.12502 0 0
lthumb 34.1478 36.1089 0
rclavicle 2.32461e-014 -2.60057e-014 0
rhumerus -43.625 -0.780057 -71.7155
rradius 53.4234 0 0
rwrist -1.80168 0 0
rhand -16.8659 -13.0414 0
rfingers 7.12502 0 0
rthumb 9.35397 -63.8495 0
107
root 7.41777 16.6553 -26.6462 3.3214 11.9613 -3.4609
lfemur -25.9507 -1.75085 -11.4392
ltibia 38.6711 0 0
lfoot -17.751 -2.67494 0
ltoes 19.2971 0 0
rfemur -36.162 -10.0113 7.24579
rtibia 79.8735 0 0
rfoot 20.3191 20.2783 0
rtoes -0.646811 0 0
lowerback 1.67697 1.2908 0.16159
upperback -0.931762 1.73502 1.72606
thorax -1.88954 0.875816 1.67835
lowerneck -10.5194 -4.83448 2.05571
upperneck -0.556563 -6.69285 1.22662
head 1.56963 -3.29863 -0.251374
lclavicle 2.36025e-014 -2.5464e-014 0
lhumerus -46.4863 -10.6903 94.1587
lradius 48.7612 0 0
lwrist 15.7151 0 0
lhand 9.45124 9.77274 0
lfingers 7.12502 0 0
lthumb 34.5693 36.1349 0
rclavicle 2.36025e-014 -2.5464e-014 0
rhumerus -43.8818 -1.13946 -71.7552
rradius 54.328 0 0
rwrist -1.8374 0 0
rhand -16.2847 -12.874 0
rfingers 7.12502 0 0
rthumb 9.91131 -70.6714 0
108
root 7.40985 16.6484 -26.6332 3.22016 12.2497 -3.40487
lfemur -25.7811 -1.14086 -11.5155
ltibia 38.6034 0 0
lfoot -17.5695 -2.31761 0
ltoes 19.5826 0 0
rfemur -36.7322 -10.377 7.43156
rtibia 80.5233 0 0
rfoot 20.3768 20.0119 0
rtoes -0.856766 0 0
lowerback 1.82674 1.11942 0.0543326
upperback -0.867147 1.49794 1.68376
thorax -1.88999 0.757765 1.71328
lowerneck -10.5343 -4.81205 1.97812
upperneck -0.516991 -6.65784 1.30326
head 1.59072 -3.27858 -0.212916
lclavicle 2.39589e-014 -2.49222e-014 0
lhumerus -46.3356 -11.258 94.3053
lradius 48.7546 0 0
lwrist 15.6249 0 0
lhand 9.90443 9.96438 0
lfingers 7.12502 0 0
lthumb 34.9908 36.1609 0
rclavicle 2.39589e-014 -2.49222e-014 0
rhumerus -44.1386 -1.49886 -71.7948
rradius 55.2326 0 0
rwrist -1.87313 0 0
rhand -15.7034 -12.7067 0
rfingers 7.12502 0 0
rthumb 10.4687 -77.4932 0
109
root 7.40193 16.6415 -26.6202 3.11892 12.5381 -3.34885
lfemur -25.6115 -0.530868 -11.5918
ltibia 38.5357 0 0
lfoot -17.3879 -1.96027 0
ltoes 19.868 0 0
rfemur -37.3024 -10.7426 7.61733
rtibia 81.173 0 0
rfoot 20.4346 19.7455 0
rtoes -1.06672 0 0
lowerback 1.97652 0.948039 -0.0529253
upperback -0.802533 1.26086 1.64146
thorax -1.89043 0.639714 1.74821
lowerneck -10.5492 -4.78961 1.90053
upperneck -0.47742 -6.62283 1.3799
head 1.61181 -3.25853 -0.174458
lclavicle 2.43153e-014 -2.43804e-014 0
lhumerus -46.1849 -11.8257 94.452
lradius 48.748 0 0
lwrist 15.5346 0 0
lhand 10.3576 10.156 0
lfingers 7.12502 0 0
lthumb 35.4124 36.1869 0
rclavicle 2.43153e-014 -2.43804e-014 0
rhumerus -44.3954 -1.85827 -71.8344
rradius 56.1373 0 0
rwrist -1.90885 0 0
rhand -15.1222 -12.5393 0
rfingers 7.12502 0 0
rthumb 11.026 -84.3151 0
110
root 7.39402 16.6345 -26.6073 3.01768 12.8266 -3.29283
lfemur -25.4419 0.0791227 -11.6682
ltibia 38.468 0 0
lfoot -17.2063 -1.60294 0
ltoes 20.1534 0 0
rfemur -37.8726 -11.1082 7.8031
rtibia 81.8227 0 0
rfoot 20.4924 19.4792 0
rtoes -1.27668 0 0
lowerback 2.12629 0.776661 -0.160183
upperback -0.737918 1.02379 1.59917
thorax -1.89088 0.521663 1.78314
lowerneck -10.5641 -4.76717 1.82295
upperneck -0.437849 -6.58783 1.45654
head 1.6329 -3.23847 -0.136
lclavicle 2.46717e-014 -2.38386e-014 0
lhumerus -46.0342 -12.3934 94.5986
lradius 48.7414 0 0
lwrist 15.4443 0 0
lhand 10.8108 10.3477 0
lfingers 7.12502 0 0
lthumb 35.8339 36.2129 0
rclavicle 2.46717e-014 -2.38386e-014 0
rhumerus -44.6522 -2.21767 -71.8741
rradius 57.0419 0 0
rwrist -1.94458 0 0
rhand -14.5409 -12.372 0
rfingers 7.12502 0 0
rthumb 11.5834 -91.1369 0
111
root 7.3861 16.6276 -26.5943 2.91644 13.115 -3.23681
lfemur -25.2723 0.689113 -11.7445
ltibia 38.4003 0 0
lfoot -17.0247 -1.2456 0
ltoes 20.4389 0 0
rfemur -38.4428 -11.4738 7.98887
rtibia 82.4725 0 0
rfoot 20.5501 19.2128 0
rtoes -1.48663 0 0
lowerback 2.27607 0.605283 -0.267441
upperback -0.673304 0.786706 1.55687
thorax -1.89132 0.403612 1.81807
lowerneck -10.579 -4.74474 1.74536
upperneck -0.398278 -6.55282 1.53318
head 1.65399 -3.21842 -0.0975423
lclavicle 2.50281e-014 -2.32968e-014 0
lhumerus -45.8835 -12.9611 94.7453
lradius 48.7348 0 0
lwrist 15.3541 0 0
lhand 11.264 10.5393 0
lfingers 7.12502 0 0
lthumb 36.2554 36.2389 0
rclavicle 2.50281e-014 -2.32968e-014 0
rhumerus -44.909 -2.57707 -71.9137
rradius 57.9465 0 0
rwrist -1.98031 0 0
rhand -13.9597 -12.2046 0
rfingers 7.12502 0 0
rthumb 12.1407 -97.9587 0
112
root 7.37819 16.6207 -26.5813 2.8152 13.4034 -3.18079
lfemur -25.1027 1.2991 -11.8208
ltibia 38.3327 0 0
lfoot -16.8431 -0.888266 0
ltoes 20.7243 0 0
rfemur -39.013 -11.8395 8.17463
rtibia 83.1222 0 0
rfoot 20.6079 18.9464 0
rtoes -1.69659 0 0
lowerback 2.42584 0.433904 -0.374699
upperback -0.608689 0.549627 1.51457
thorax -1.89177 0.285561 1.85299
lowerneck -10.5938 -4.7223 1.66778
upperneck -0.358707 -6.51781 1.60981
head 1.67508 -3.19836 -0.0590844
lclavicle 2.53845e-014 -2.2755e-014 0
lhumerus -45.7328 -13.5288 94.8919
lradius 48.7281 0 0
lwrist 15.2638 0 0
lhand 11.7172 10.731 0
lfingers 7.12502 0 0
lthumb 36.677 36.2649 0
rclavicle 2.53845e-014 -2.2755e-014 0
rhumerus -45.1657 -2.93647 -71.9534
rradius 58.8512 0 0
rwrist -2.01603 0 0
rhand -13.3784 -12.0372 0
rfingers 7.12502 0 0
rthumb 12.6981 -104.781 0
113
root 7.37027 16.6138 -26.5683 2.71396 13.6918 -3.12477
lfemur -24.9331 1.90909 -11.8971
ltibia 38.265 0 0
lfoot -16.6615 -0.530931 0
ltoes 21.0098 0 0
rfemur -39.5833 -12.2051 8.3604
rtibia 83.7719 0 0
rfoot 20.6657 18.68 0
rtoes -1.90654 0 0
lowerback 2.57562 0.262526 -0.481957
upperback -0.544075 0.312548 1.47227
thorax -1.89221 0.16751 1.88792
lowerneck -10.6087 -4.69986 1.59019
upperneck -0.319136 -6.4828 1.68645
head 1.69617 -3.17831 -0.0206264
lclavicle 2.57409e-014 -2.22132e-014 0
lhumerus -45.5821 -14.0965 95.0386
lradius 48.7215 0 0
lwrist 15.1735 0 0
lhand 12.1704 10.9226 0
lfingers 7.12502 0 0
lthumb 37.0985 36.2909 0
rclavicle 2.57409e-014 -2.22132e-014 0
rhumerus -45.4225 -3.29588 -71.993
rradius 59.7558 0 0
rwrist -2.05176 0 0
rhand -12.7972 -11.8699 0
rfingers 7.12502 0 0
rthumb 13.2554 -111.602 0
